<?xml version="1.0" standalone="no"?><!DOCTYPE svg PUBLIC "-//W3C//DTD SVG 1.1//EN" "http://www.w3.org/Graphics/SVG/1.1/DTD/svg11.dtd"><svg t="1608607285052" class="icon" viewBox="0 0 1024 1024" version="1.1" xmlns="http://www.w3.org/2000/svg" p-id="7409" xmlns:xlink="http://www.w3.org/1999/xlink" width="200" height="200"><defs><style type="text/css"></style></defs><path d="M32 809.44V32h960v777.44H32z m75.52-75.776h808.96V112H107.52v621.664z m52.704 242.304V896h704v80h-704z m196.256-556.736c-13.536-45.248-25.312-95.232-38.24-142.272h-2.368a3151.04 3151.04 0 0 1-37.024 142.272l-12.96 47.68h103.52l-12.928-47.68z m-109.376 112.128l-30.592 111.68H128.32l139.328-435.2h102.336l139.968 435.2h-91.2l-30.528-111.744-141.12 0.064z m428.064 44.896c81.152 0 131.712-43.52 131.712-149.376 0-106.4-50.56-146.4-131.712-146.4h-27.008v295.776h27.008z m5.312-368.32c132.896 0 215.2 68.768 215.2 215.744 0 146.432-82.304 219.328-210.528 219.328h-124.032V207.936h119.36z" fill="#000000" fill-opacity=".65" p-id="7410"></path></svg>