<?xml version="1.0" standalone="no"?><!DOCTYPE svg PUBLIC "-//W3C//DTD SVG 1.1//EN" "http://www.w3.org/Graphics/SVG/1.1/DTD/svg11.dtd"><svg t="1604633334495" class="icon" viewBox="0 0 1024 1024" version="1.1" xmlns="http://www.w3.org/2000/svg" p-id="4867" xmlns:xlink="http://www.w3.org/1999/xlink" width="200" height="200"><defs><style type="text/css"></style></defs><path d="M149.333 874.667v-672c0-64.8 52.534-117.334 117.334-117.334H544c64.8 0 117.333 52.534 117.333 117.334v65.866l149.952 77.654a117.333 117.333 0 0 1 63.382 104.192v424.288h32a32 32 0 0 1 0 64H117.333a32 32 0 0 1 0-64h32z m512 0h149.334V450.379a53.333 53.333 0 0 0-28.8-47.36l-120.534-62.411v534.059z m-448 0h384v-672A53.333 53.333 0 0 0 544 149.333H266.667a53.333 53.333 0 0 0-53.334 53.334v672z" p-id="4868"></path></svg>