<?xml version="1.0" standalone="no"?><!DOCTYPE svg PUBLIC "-//W3C//DTD SVG 1.1//EN" "http://www.w3.org/Graphics/SVG/1.1/DTD/svg11.dtd"><svg t="1608607205853" class="icon" viewBox="0 0 1024 1024" version="1.1" xmlns="http://www.w3.org/2000/svg" p-id="5035" xmlns:xlink="http://www.w3.org/1999/xlink" width="200" height="200"><defs><style type="text/css"></style></defs><path d="M152 252a45.6 44 0 1 0 91.2 0 45.6 44 0 1 0-91.2 0Z" p-id="5036"></path><path d="M152 428a45.6 44 0 1 0 91.2 0 45.6 44 0 1 0-91.2 0Z" p-id="5037"></path><path d="M152 604a45.6 44 0 1 0 91.2 0 45.6 44 0 1 0-91.2 0Z" p-id="5038"></path><path d="M152 780a45.6 44 0 1 0 91.2 0 45.6 44 0 1 0-91.2 0Z" p-id="5039"></path><path d="M334.4 208h545.6v88h-545.6zM334.4 384h433.6v88h-433.6zM334.4 560h321.6v88h-321.6zM334.4 736h545.6v88h-545.6z" p-id="5040"></path></svg>