<?xml version="1.0" standalone="no"?><!DOCTYPE svg PUBLIC "-//W3C//DTD SVG 1.1//EN" "http://www.w3.org/Graphics/SVG/1.1/DTD/svg11.dtd"><svg t="1610517996390" class="icon" viewBox="0 0 1024 1024" version="1.1" xmlns="http://www.w3.org/2000/svg" p-id="2719" xmlns:xlink="http://www.w3.org/1999/xlink" width="200" height="200"><defs><style type="text/css"></style></defs><path d="M1022.273342 130.698059c-7.646119-43.524061-37.642431-54.110995-49.993854-57.05181l-3.528978-0.588163-20.585704 0c-0.588163 0-1.764489 0-2.352652 0l-36.466105 0c-0.588163 0-1.764489 0-2.352652 0l-2.352652 0 0 0c-14.704075 2.352652-25.879171 14.704075-25.879171 29.996312l0 9.410608c0 15.292238 11.175097 28.231823 25.879171 29.996312l0 0 3.528978 0c0.588163 0 0.588163 0 1.176326 0l36.466105 0c0.588163 0 0.588163 0 1.176326 0l6.469793 0c0.588163 3.528978 0.588163 8.822445 0 12.351423l-0.588163 1.764489 0 738.144546c-1.176326 21.173867-8.822445 37.054268-21.173867 47.641202-7.646119 5.88163-15.880401 8.822445-19.409378 9.998771l-57.05181 0 0-0.588163c-22.938356-1.176326-36.466105-9.410608-44.700387-27.64366-7.057956-15.880401-7.057956-32.937127-7.057956-34.701616l0-0.588163 0-766.964532c2.352652-42.935898-8.234282-75.284862-31.172638-97.635055C745.836739 0.125876 713.487775-0.462287 703.489004 0.125876L94.740315 0.125876l0 0c-27.055497 0-49.993854 9.998771-66.462417 28.231823-29.996312 33.52529-28.231823 84.107307-27.64366 95.870567l0 765.200043c0 7.057956-0.588163 34.113453 12.351423 61.757113 19.409378 42.935898 58.816298 68.815069 111.750967 72.344047l1.176326 0 792.843703 0 2.352652-0.588163c4.117141-0.588163 26.467334-4.705304 49.405691-21.76203 21.76203-15.880401 48.817528-47.053039 52.346506-102.340359l0-1.176326L1022.861505 162.45886C1024.037831 157.165393 1024.625994 144.225808 1022.273342 130.698059L1022.273342 130.698059zM128.265605 953.538074c-16.468564-1.176326-39.40692-5.88163-50.582017-29.408149-7.057956-14.704075-7.057956-29.996312-7.057956-31.760801l0-0.588163 0-770.49351 0-1.764489c-0.588163-8.234282 0-33.52529 9.410608-44.112224 2.352652-2.352652 5.88163-5.293467 14.704075-5.293467l609.925015 0 1.176326 0 2.352652-0.588163c1.764489 0 10.586934 0 16.468564 5.88163 7.057956 7.057956 10.586934 22.350193 8.822445 42.935898l0 1.176326 0 766.964532c0 7.057956-0.588163 36.466105 12.939586 65.874254L128.265605 953.538074 128.265605 953.538074 128.265605 953.538074zM657.612291 180.691913c0 20.585704-16.468564 37.054268-37.054268 37.054268l-439.945913 0c-20.585704 0-37.054268-16.468564-37.054268-37.054268l0 0c0-20.585704 16.468564-37.054268 37.054268-37.054268l439.945913 0C641.143728 144.225808 657.612291 160.694371 657.612291 180.691913L657.612291 180.691913 657.612291 180.691913zM657.612291 843.551596 657.612291 843.551596M656.435965 385.960794c0 20.585704-16.468564 37.054268-37.054268 37.054268L179.435785 423.015062c-20.585704 0-37.054268-16.468564-37.054268-37.054268l0 0c0-20.585704 16.468564-37.054268 37.054268-37.054268l439.945913 0C639.967402 348.906526 656.435965 365.963253 656.435965 385.960794M656.435965 586.524372c0 20.585704-16.468564 37.054268-37.054268 37.054268L179.435785 623.57864c-20.585704 0-37.054268-16.468564-37.054268-37.054268l0 0c0-20.585704 16.468564-37.054268 37.054268-37.054268l439.945913 0C639.967402 550.058267 656.435965 566.526831 656.435965 586.524372M364.118962 788.264276c0 20.585704-16.468564 37.054268-37.054268 37.054268L179.435785 825.318544c-20.585704 0-37.054268-16.468564-37.054268-37.054268l0 0c0-20.585704 16.468564-37.054268 37.054268-37.054268l147.628909 0C347.650398 751.798171 364.118962 768.266734 364.118962 788.264276L364.118962 788.264276 364.118962 788.264276z" p-id="2720"></path></svg>