<?xml version="1.0" standalone="no"?><!DOCTYPE svg PUBLIC "-//W3C//DTD SVG 1.1//EN" "http://www.w3.org/Graphics/SVG/1.1/DTD/svg11.dtd"><svg t="1604632248417" class="icon" viewBox="0 0 1024 1024" version="1.1" xmlns="http://www.w3.org/2000/svg" p-id="3937" xmlns:xlink="http://www.w3.org/1999/xlink" width="200" height="200"><defs><style type="text/css"></style></defs><path d="M804.096 512.443733L557.294933 634.197333a102.417067 102.417067 0 0 1-45.294933 10.496 102.690133 102.690133 0 0 1-45.346133-10.496l-246.766934-121.736533c-22.664533-11.195733-49.220267 5.307733-49.220266 30.6176V832.170667c0 84.8384 152.814933 153.6 341.333333 153.6s341.333333-68.7616 341.333333-153.6V543.061333c0-25.2928-26.555733-41.796267-49.237333-30.6176z"  p-id="3938"></path><path d="M1003.4688 276.753067L527.104 41.745067a34.167467 34.167467 0 0 0-30.208 0L20.5312 276.753067c-25.378133 12.526933-25.378133 48.708267 0 61.218133l29.5936 14.609067v211.848533a25.6 25.6 0 1 0 51.2 0V377.838933l395.5712 195.140267a34.167467 34.167467 0 0 0 30.208 0l476.3648-235.008c25.378133-12.509867 25.378133-48.6912 0-61.218133zM75.741867 641.2288a25.6 25.6 0 0 0-25.6 25.6v34.133333a25.6 25.6 0 1 0 51.2 0v-34.133333a25.6 25.6 0 0 0-25.6-25.6z"  p-id="3939"></path></svg>
