<?xml version="1.0" standalone="no"?><!DOCTYPE svg PUBLIC "-//W3C//DTD SVG 1.1//EN" "http://www.w3.org/Graphics/SVG/1.1/DTD/svg11.dtd"><svg t="1600160673793" class="icon" viewBox="0 0 1024 1024" version="1.1" xmlns="http://www.w3.org/2000/svg" p-id="4344" xmlns:xlink="http://www.w3.org/1999/xlink" width="64" height="64"><defs><style type="text/css"></style></defs><path d="M958.182 127.469l-127.488 0c-35.206 0-63.744 28.538-63.744 63.763l0 382.431-127.488 0 0-541.81c0-17.593-14.266-31.853-31.866-31.853-17.612 0-31.878 14.26-31.878 31.853l0 414.341-127.488 0 0-63.731c0-35.257-28.538-63.795-63.737-63.795l-318.725 0c-35.199 0-63.744 28.538-63.744 63.795l0 573.656c0 35.225 28.545 63.763 63.744 63.763l0-637.419 318.725 0 0 637.419c35.199 0 63.737-28.538 63.737-63.763l0-191.2 127.488 0 0 223.11c0 17.6 14.266 31.853 31.878 31.853 17.6 0 31.866-14.253 31.866-31.853l0-95.616 127.488 0 0 63.706c0 35.225 28.538 63.763 63.744 63.763l0-828.651 127.488 0 0 828.651c35.206 0 63.75-28.538 63.75-63.763l0-764.888C1021.932 156.007 993.388 127.469 958.182 127.469zM575.719 701.189l-127.488 0 0-191.263 127.488 0L575.719 701.189zM766.951 828.651l-127.488 0 0-191.225 127.488 0L766.951 828.651z" p-id="4345"></path><path d="M129.512 671.379c0 52.818 42.81 95.609 95.616 95.609s95.616-42.792 95.616-95.609c0-52.825-95.616-159.379-95.616-159.379S129.512 618.555 129.512 671.379zM257 703.226l-63.737 0 0-63.731 63.737 0L257 703.226z" p-id="4346"></path></svg>