<?xml version="1.0" standalone="no"?><!DOCTYPE svg PUBLIC "-//W3C//DTD SVG 1.1//EN" "http://www.w3.org/Graphics/SVG/1.1/DTD/svg11.dtd"><svg t="1608607271313" class="icon" viewBox="0 0 1024 1024" version="1.1" xmlns="http://www.w3.org/2000/svg" p-id="6638" xmlns:xlink="http://www.w3.org/1999/xlink" width="200" height="200"><defs><style type="text/css"></style></defs><path d="M515.38944 78.769231C287.352517 78.769231 98.070055 268.209231 98.070055 499.160615v284.120616h79.793231V499.160615c0-187.076923 150.528-341.858462 337.526154-341.858461 184.792615 0 337.604923 152.497231 337.604923 341.858461v284.120616h79.793231V499.160615C932.787594 268.209231 743.505132 78.769231 515.38944 78.769231zM1024.002363 824.871385a41.117538 41.117538 0 0 1-41.038769 41.590153H40.962363A41.117538 41.117538 0 0 1 0.002363 824.871385c0-23.079385 18.274462-41.590154 41.038769-41.590154H983.042363c22.843077 0 41.038769 18.510769 41.038769 41.590154z" p-id="6639"></path><path d="M631.495286 859.766154c-6.616615 45.686154-59.785846 84.440615-119.492923 84.440615-59.707077 0-110.592-36.548923-119.492923-84.440615H315.079286C321.695902 950.980923 408.026978 1024 512.002363 1024s190.306462-73.019077 196.923077-164.233846h-77.430154zM518.618978 159.665231a39.778462 39.778462 0 0 1-39.778461-38.754462V38.754462A37.809231 37.809231 0 0 1 516.41344 0c22.134154 0 37.651692 18.274462 37.651692 38.754462v79.872c4.411077 22.843077-13.312 40.96-35.446154 40.96z" p-id="6640"></path></svg>