<?xml version="1.0" standalone="no"?><!DOCTYPE svg PUBLIC "-//W3C//DTD SVG 1.1//EN" "http://www.w3.org/Graphics/SVG/1.1/DTD/svg11.dtd"><svg t="1607995265525" class="icon" viewBox="0 0 1024 1024" version="1.1" xmlns="http://www.w3.org/2000/svg" p-id="3350" xmlns:xlink="http://www.w3.org/1999/xlink" width="200" height="200"><defs><style type="text/css"></style></defs><path d="M770.304 624.0256v-69.7344a9.1648 9.1648 0 0 0-9.1648-9.1648H262.8608a9.1648 9.1648 0 0 0-9.1648 9.1648v69.7344H363.52a36.5568 36.5568 0 0 1 36.5568 36.5568v326.8608A36.5568 36.5568 0 0 1 363.52 1024H36.5568A36.5568 36.5568 0 0 1 0 987.4432V660.48a36.5568 36.5568 0 0 1 36.5568-36.5568h144.0256V508.5696a36.5568 36.5568 0 0 1 36.5568-36.5568h258.304V400.0256H348.5696a36.5568 36.5568 0 0 1-36.5568-36.5568V36.5568A36.5568 36.5568 0 0 1 348.5696 0h326.8608a36.5568 36.5568 0 0 1 36.5568 36.5568V363.52a36.5568 36.5568 0 0 1-36.5568 36.5568h-126.8736V472.064h258.304a36.5568 36.5568 0 0 1 36.5568 36.5568v115.4048h144.0256A36.5568 36.5568 0 0 1 1024 660.48v326.8608a36.5568 36.5568 0 0 1-36.5568 36.5568H660.48a36.5568 36.5568 0 0 1-36.5568-36.5568V660.48a36.5568 36.5568 0 0 1 36.5568-36.5568zM394.24 73.1648a9.1648 9.1648 0 0 0-9.1648 9.1648v235.52a9.1648 9.1648 0 0 0 9.1648 9.1648h235.52a9.1648 9.1648 0 0 0 9.1648-9.1648v-235.52a9.1648 9.1648 0 0 0-9.1648-9.1648zM82.2784 697.1392a9.1648 9.1648 0 0 0-9.1648 9.1648v235.52a9.1648 9.1648 0 0 0 9.1648 9.1648h235.52a9.1648 9.1648 0 0 0 9.1648-9.1648v-235.52a9.1648 9.1648 0 0 0-9.1648-9.1648z m624.0256 0a9.1648 9.1648 0 0 0-9.1648 9.1648v235.52a9.1648 9.1648 0 0 0 9.1648 9.1648h235.52a9.1648 9.1648 0 0 0 9.1648-9.1648v-235.52a9.1648 9.1648 0 0 0-9.1648-9.1648z" p-id="3351"></path></svg>