<?xml version="1.0" standalone="no"?>
<!DOCTYPE svg PUBLIC "-//W3C//DTD SVG 1.1//EN" "http://www.w3.org/Graphics/SVG/1.1/DTD/svg11.dtd"><svg t="1608607308198"
     class="icon" viewBox="0 0 1024 1024" version="1.1" xmlns="http://www.w3.org/2000/svg" p-id="8178"
     xmlns:xlink="http://www.w3.org/1999/xlink" width="200" height="200">
  <defs>
    <style type="text/css"></style>
  </defs>
  <path d="M901.12 0L122.88 0a122.88000001 122.88000001 0 0 0-122.88 122.88l0 778.24a122.88000001 122.88000001 0 0 0 122.88 122.88l778.24 0a122.88000001 122.88000001 0 0 0 122.88-122.88L1024 122.88a122.88000001 122.88000001 0 0 0-122.88-122.88zM337.2032 862.88384002l-57.7536-3e-8L279.4496 562.31936c-34.95936 42.2912-71.70048 79.68768-110.20288001 112.08704001a1511.09632 1511.09632 0 0 0-35.71711999-50.91328002c77.5168-62.5664 144.40448001-140.59520001 200.64256001-234.06591999L156.32384 389.4272l0-53.20704 207.85151999 0c6.08256-11.40736 12.02176001-23.03999999 17.85856-34.95936001l60.04736 0c-5.8368 11.91935998-11.65311999 23.55200001-17.48991999 34.95936001l444.60032 0 0 53.20704L396.47232 389.4272a1235.59936 1235.59936 0 0 1-59.2896 95.76448l0 377.69215999z m542.63808-192.28672002l-199.8848 0 0 101.08928c0 59.80160001-27.62752 89.68192-82.8416 89.68192a15343.616 15343.616 0 0 1-132.23936-0.75776001 1212.55936 1212.55936 0 0 0-9.87136001-61.56287999c46.59199999 4.05503999 89.16991999 6.08256 127.67232001 6.08256 26.33728001 0 39.52640001-14.17216 39.5264-42.55743997l0-91.95520003-228.76160001 0 0-53.20703999 228.76160001 0 0-37.23264002 110.96064-71.43423999L434.4832 508.74368l0-51.67103999L827.392 457.07263999l0 51.67104001-147.43552 93.47072001 0 15.19616 199.8848-2e-8 0 53.18656001z m0-427.1104l-197.59104 0 0 55.48031999-57.75359999 0 0-55.48031999L413.20447999 243.48672l0 47.12448001-57.75359999 0 0-47.12448001L154.80832 243.48672 154.80832 190.30016l200.64256 0L355.45088 122.65472l57.75359999 0 0 67.64544 211.27168001 0 0-68.4032 57.7536 0 1e-8 68.4032 197.59103999 0 0 53.18656z"
        p-id="8179"></path>
</svg>
