<?xml version="1.0" standalone="no"?><!DOCTYPE svg PUBLIC "-//W3C//DTD SVG 1.1//EN" "http://www.w3.org/Graphics/SVG/1.1/DTD/svg11.dtd"><svg t="1608607253018" class="icon" viewBox="0 0 1024 1024" version="1.1" xmlns="http://www.w3.org/2000/svg" p-id="5879" xmlns:xlink="http://www.w3.org/1999/xlink" width="200" height="200"><defs><style type="text/css"></style></defs><path d="M61.952 316.416L503.296 517.12c4.096 2.048 8.192 2.56 12.8 2.56s8.704-1.024 12.8-2.56l441.344-200.704c10.752-5.12 17.92-15.872 17.92-28.16s-7.168-23.04-17.92-28.16l-441.344-200.704c-8.192-3.584-17.408-3.584-25.6 0L61.952 260.608c-10.752 5.12-17.92 15.872-17.92 28.16s7.168 22.528 17.92 27.648z m454.144-195.072l367.104 166.912L516.096 455.68 148.992 288.256l367.104-166.912z" p-id="5880"></path><path d="M945.152 489.984l-428.544 195.072-429.056-195.072c-15.36-7.168-33.792 0-40.448 15.36-7.168 15.36 0 33.792 15.36 40.448l441.344 200.704c4.096 2.048 8.192 2.56 12.8 2.56s8.704-1.024 12.8-2.56l441.344-200.704c15.36-7.168 22.016-25.088 15.36-40.448-7.68-15.36-25.6-22.528-40.96-15.36z" p-id="5881"></path><path d="M945.152 718.848l-428.544 195.072-428.544-195.072c-15.36-7.168-33.792 0-40.448 15.36-7.168 15.36 0 33.792 15.36 40.448l441.344 200.704c4.096 2.048 8.192 2.56 12.8 2.56s8.704-1.024 12.8-2.56l441.344-200.704c15.36-7.168 22.016-25.088 15.36-40.448-8.192-15.36-26.112-22.016-41.472-15.36z" p-id="5882"></path></svg>