<?xml version="1.0" standalone="no"?><!DOCTYPE svg PUBLIC "-//W3C//DTD SVG 1.1//EN" "http://www.w3.org/Graphics/SVG/1.1/DTD/svg11.dtd"><svg t="1604632204480" class="icon" viewBox="0 0 1024 1024" version="1.1" xmlns="http://www.w3.org/2000/svg" p-id="2258" xmlns:xlink="http://www.w3.org/1999/xlink" width="200" height="200"><defs><style type="text/css"></style></defs><path d="M884.8 1014.4H144c-36.8 0-67.2-30.4-67.2-67.2V209.6c0-36.8 30.4-67.2 67.2-67.2h33.6v100.8c0 36.8 30.4 67.2 67.2 67.2h538.4c36.8 0 67.2-30.4 67.2-67.2V142.4h33.6c36.8 0 67.2 30.4 67.2 67.2v737.6c0.8 36.8-29.6 67.2-66.4 67.2z m-150.4-456c-20-19.2-52-19.2-72 0L482.4 729.6l-84-80c-20-19.2-52-19.2-72 0s-20 49.6 0 68l120 113.6c20 19.2 52 19.2 72 0l216-204.8c20-18.4 20-48.8 0-68z m-52-315.2h-336c-36.8 0-67.2-30.4-67.2-67.2v-33.6C413.6 44 415.2 42.4 450.4 8.8H584c32.8 31.2 32 35.2 165.6 133.6V176c0 37.6-29.6 67.2-67.2 67.2z m-168-167.2c-36.8 0-67.2 30.4-67.2 67.2s30.4 67.2 67.2 67.2 67.2-30.4 67.2-67.2c0-37.6-30.4-67.2-67.2-67.2z" p-id="2259"></path></svg>