<?xml version="1.0" standalone="no"?><!DOCTYPE svg PUBLIC "-//W3C//DTD SVG 1.1//EN" "http://www.w3.org/Graphics/SVG/1.1/DTD/svg11.dtd"><svg t="1600160419791" class="icon" viewBox="0 0 1024 1024" version="1.1" xmlns="http://www.w3.org/2000/svg" p-id="1254" xmlns:xlink="http://www.w3.org/1999/xlink" width="64" height="64"><defs><style type="text/css"></style></defs><path d="M321.656471 943.686275a120.269804 120.269804 0 0 1-1.28502-76.338197L492.28298 321.254902h121.133177V80.313725H411.708235v237.226667l-161.029019 575.166745A40.156863 40.156863 0 0 0 289.330196 943.686275h32.326275zM693.709804 80.313725v237.126275l156.451137 553.321412A120.470588 120.470588 0 0 1 734.228078 1024H289.350275a120.470588 120.470588 0 0 1-116.013177-152.95749l158.057412-564.525177V80.313725H250.980392a40.156863 40.156863 0 1 1 0-80.313725h522.039216a40.156863 40.156863 0 1 1 0 80.313725h-79.309804z m-64.351373 321.234824h-78.165333l-154.202353 489.913726A40.156863 40.156863 0 0 0 435.260235 943.686275h297.843451a40.156863 40.156863 0 0 0 38.550589-51.34055l-142.315922-490.797176zM632.470588 722.823529a40.156863 40.156863 0 1 1 0-80.313725 40.156863 40.156863 0 0 1 0 80.313725z m-120.470588 100.392157a40.156863 40.156863 0 1 1 0-80.313725 40.156863 40.156863 0 0 1 0 80.313725z m160.627451 100.392157a40.156863 40.156863 0 1 1 0-80.313725 40.156863 40.156863 0 0 1 0 80.313725z" p-id="1255"></path></svg>